/* XPM */
static char *f8a39c908f584bd5c36e353388316f216gFGXZggP40xW8RH[] = {
/* columns rows colors chars-per-pixel */
"64 64 11 1 ",
"  c None",
". c #191D21",
"X c #57363C",
"o c #363F57",
"O c #545257",
"+ c #7D4B47",
"@ c #47487D",
"# c #AB6A52",
"$ c #6152AB",
"% c #8259CF",
"& c #FFEBF9",
/* pixels */
"                                                                ",
"                                                                ",
"                                                                ",
"                                                                ",
"                                                                ",
"                                                                ",
"                                                                ",
"                                                                ",
"                                                                ",
"                                                                ",
"                                                                ",
"                                                                ",
"                                                                ",
"                                                                ",
"                                                                ",
"                                                                ",
"                    ..                    ..                    ",
"                    .#.                  .#.                    ",
"                    .##.                .##.                    ",
"                    .+##.              .##+.                    ",
"                     .##+..          ..+##.                     ",
"                     .+##XX..........XX##+.                     ",
"                      .+#+X##########X+#+.                      ",
"               .      .X+X+##########+X+X.      .               ",
"               .       .X+############+X.       .               ",
"              .X.       .+############+.       .X.              ",
"             .X+X.      .+############+.      .X+X.             ",
"           ..X+++X.     .++##########++.     .X+++X..           ",
"        ...X+++##+X.    .+++########+++.    .X++++++X....       ",
"         .XX######+X.  .X+....X++X....+X.  .X++#####XX.         ",
"          .XX+#####+X. .X.oooo....oooo.X. .X+#####+XX.          ",
"          .XXX+#####+X.X.oo.&.$$$$.&.oo.X.X+#####+XXX.          ",
"        ..+++XX+###.++.X.o$$.&o$$o&.$$o.X.++.###+XX+++..        ",
"      ..X++++++X+#.%.+...$$$$$$%%$$$$$$...+.%.#+X++++++X..      ",
"    ..X+#####+++XX..%.%.@..$$%%%%%%$$..@.%.%..XX+++#####+X..    ",
"   .XX+++######+X.%%%$$..oo.$$%%%%$$.oo..$$%%%.X++#####+++XX.   ",
"    .+XX######+++X.%$$.$%$oo..%%%%..oo$%$.$$%.X++#####++XX+.    ",
"   .++++XX+#......$$$$$%%%$.+X....X+.$%%%$$$$$......++XX++++.   ",
"  .+###+++X.     ...$$%%$%.+#++XX++#+.%$%%$$...     .X+++###+.  ",
"..X++###+..       . ...o%$.##########.$%o... .       ..+###++X. ",
" ..XXX...             .o%.+##########+.%o.             ...XXX...",
"   ...                .$%.############.%$.                ...   ",
"                      .%%.############.%%.                      ",
"                      .%%.############.%%.                      ",
"                ... o..%%.+####+X####+.%%..o ...                ",
"               .$%%.$o.$%$.+########+.$%$.o$.%%$.               ",
"               .%%%%.$$o$%.X+######+X.%$o$$.%%%%.               ",
"               .$%%%.$%$o%$..X+##+X..$%o$%$.%%%$.               ",
"               .$%%%$%%%$%%%$......$%%%$%%%$%%%$.               ",
"                .$%%.%%%%%..@$$$$$$@..%%%%%.%%$.                ",
"                .$$$%%....  ........  ....%%$$$.                ",
"                .oo$..      .XXXXXX.      ..$oo.                ",
"                 ...         .XXXX.         ...                 ",
"                             .++++.                             ",
"                             .++++.                             ",
"                              .++.                              ",
"                              .++.                              ",
"                               ..                               ",
"                                                                ",
"                                                                ",
"                                                                ",
"                     OOOOOOOOOOOOOOOOOOOOO                      ",
"                    OOOOOOOOOOOOOOOOOOOOOOOO                    ",
"                  OOOOOOOOOOOOOOOOOOOOOOOOOOO                   "
};
