/* XPM */
static char *_642034ef7c94ed5e746edf28019cfabDa79sQBXWpubQLtI[] = {
/* columns rows colors chars-per-pixel */
"64 64 246 2 ",
"   c None",
".  c #057E21",
"X  c #11931B",
"o  c #3CBF15",
"O  c #0B8A23",
"+  c #0D8A29",
"@  c #0B8724",
"#  c #138727",
"$  c #138B27",
"%  c #158E28",
"&  c #0D9224",
"*  c #1A9526",
"=  c #169228",
"-  c #1A9528",
";  c #139B29",
":  c #1E9B28",
">  c #179625",
",  c #258223",
"<  c #229E28",
"1  c #259E27",
"2  c #289A32",
"3  c #15A42A",
"4  c #1CA228",
"5  c #1BAC2A",
"6  c #1AA727",
"7  c #1BB12A",
"8  c #17BB29",
"9  c #0FAD29",
"0  c #25A228",
"q  c #29A628",
"w  c #22AB29",
"e  c #2EAA28",
"r  c #27A625",
"t  c #32AD29",
"y  c #37AC2B",
"u  c #23B329",
"i  c #29B228",
"p  c #2DBB28",
"a  c #24BD28",
"s  c #3BB527",
"d  c #3DBA27",
"f  c #35B228",
"g  c #3AB329",
"h  c #36B826",
"j  c #29A631",
"k  c #37A631",
"l  c #3EBC33",
"z  c #44BC27",
"x  c #48BD28",
"c  c #52BA3C",
"v  c #0ECC2D",
"b  c #04C92D",
"n  c #1BC52A",
"m  c #1DCD2A",
"M  c #14C62B",
"N  c #0FD12C",
"B  c #14D32B",
"V  c #2AC328",
"C  c #22CC2A",
"Z  c #2BC828",
"A  c #35C427",
"S  c #3BC326",
"D  c #3ACB27",
"F  c #35C829",
"G  c #24D129",
"H  c #2CD528",
"J  c #3BD626",
"K  c #34D328",
"L  c #57CC1C",
"P  c #59D719",
"I  c #41C619",
"U  c #6CDE0A",
"Y  c #6CDD1D",
"T  c #69D619",
"R  c #72DD14",
"E  c #7CDD1E",
"W  c #79DD19",
"Q  c #6AD514",
"!  c #7CE115",
"~  c #75E01B",
"^  c #7CE21D",
"/  c #72E115",
"(  c #6FE215",
")  c #4BC226",
"_  c #45C926",
"`  c #53C625",
"'  c #54CB25",
"]  c #5CCC24",
"[  c #55C529",
"{  c #4CD425",
"}  c #4BD925",
"|  c #43D827",
" . c #53D424",
".. c #5BD524",
"X. c #55DB24",
"o. c #5CDD24",
"O. c #55D629",
"+. c #54D035",
"@. c #62CF24",
"#. c #64D123",
"$. c #6BD423",
"%. c #64DC23",
"&. c #6CDE22",
"*. c #6AD82C",
"=. c #70D721",
"-. c #73DC21",
";. c #79DB21",
":. c #72DF2B",
">. c #79DB2A",
",. c #69D637",
"<. c #74D63A",
"1. c #6ECE39",
"2. c #5AE024",
"3. c #4AE026",
"4. c #6CE223",
"5. c #64E123",
"6. c #75E221",
"7. c #7AE120",
"8. c #75E22A",
"9. c #7CE12B",
"0. c #78E820",
"q. c #7FE137",
"w. c #57BB53",
"e. c #41A944",
"r. c #6CD146",
"t. c #73C46D",
"y. c #5EC457",
"u. c #86DF1E",
"i. c #87E30C",
"p. c #98E70E",
"a. c #83E313",
"s. c #84E31E",
"d. c #8CE41D",
"f. c #8AE81B",
"g. c #94E61C",
"h. c #99E71B",
"j. c #9CE91B",
"k. c #9BE814",
"l. c #A8EA0B",
"z. c #B7ED0B",
"x. c #ACEB16",
"c. c #A4EA1A",
"v. c #ABEB19",
"b. c #A2E916",
"n. c #B4ED17",
"m. c #BBEE15",
"M. c #B2EC18",
"N. c #BCEE18",
"B. c #88DE30",
"V. c #82E323",
"C. c #8DE523",
"Z. c #8BE32B",
"A. c #83E22D",
"S. c #93E625",
"D. c #9CE926",
"F. c #93E62B",
"G. c #99E72A",
"H. c #9CE82B",
"J. c #99E725",
"K. c #84E234",
"L. c #86E239",
"P. c #8AE33D",
"I. c #8BE435",
"U. c #94E634",
"Y. c #9AE639",
"T. c #99E738",
"R. c #A3EA24",
"E. c #ABEB25",
"W. c #A4EA2B",
"Q. c #ACEC2C",
"!. c #B3ED2A",
"~. c #BCEE2D",
"^. c #B4ED24",
"/. c #A4E933",
"(. c #A7E939",
"). c #BCEE3B",
"_. c #B6ED39",
"`. c #CBF20B",
"'. c #C8F114",
"]. c #C5F017",
"[. c #CAF11A",
"{. c #C6F126",
"}. c #D2F322",
"|. c #D4F429",
" X c #C3EF3C",
".X c #C6F03C",
"XX c #C9F03E",
"oX c #C6F034",
"OX c #D1F332",
"+X c #EAFA32",
"@X c #84DA49",
"#X c #92DE55",
"$X c #86E246",
"%X c #8DE442",
"&X c #8DE449",
"*X c #94E54C",
"=X c #98E648",
"-X c #96E652",
";X c #9AE655",
":X c #A8E947",
">X c #B9ED47",
",X c #A8E858",
"<X c #B4EC5B",
"1X c #A7E867",
"2X c #B6EC66",
"3X c #B2EA72",
"4X c #9CDD7C",
"5X c #C8F154",
"6X c #CCF24C",
"7X c #C9F269",
"8X c #D4F46A",
"9X c #C3EE73",
"0X c #C9EF7F",
"qX c #CBF177",
"wX c #D7F479",
"eX c #C2EF6E",
"rX c #E3F871",
"tX c #F1FB70",
"yX c #98D88A",
"uX c #B6EC89",
"iX c #ABE696",
"pX c #B5E7AC",
"aX c #DBF483",
"sX c #D9F388",
"dX c #D9F496",
"fX c #C9F192",
"gX c #E4F68E",
"hX c #EDFA95",
"jX c #D9F4A6",
"kX c #D6F3B8",
"lX c #C8F0AD",
"zX c #E3F7A5",
"xX c #E8F9B6",
"cX c #F8FCB6",
"vX c #F5FCAD",
"bX c #DDF4D1",
"nX c #EAF9C7",
"mX c #F5FBC6",
"MX c #EAF9DA",
"NX c #FAFDD9",
"BX c #F9FDE9",
"VX c #FBFEF4",
"CX c #FFFFFF",
"ZX c #FFFFFE",
"AX c #F5FCF3",
"SX c #EFFAE5",
/* pixels */
"                                                                                                                                ",
"                                                                                                                                ",
"                                                                                                                                ",
"                                                                    -X=X,XkX                                                    ",
"                                                          -X%X$X%XP.%XL.$X$X%XP.                                                ",
"                                                  P.%X%X%X%X%XU.!.>X'.x.c.v.v.%X%X                                              ",
"                                            %X%X&Xc.c.c.x.c.a.;.d.n.].`.m.'.v.x.3X%XL.                                          ",
"                                        P.%XU.`.n.6.) ' '  .CX` T ^.dXwXnX'.`.M.5XsXP.%X                                        ",
"                                    P.$X~.CXZXgX7X-.4.-.&.^ lXY W v.l.6XVXc.N.b.M.M.x.U.%XP.                                    ",
"                                K.%X].ZXCXCXkX! ZXU ^ s.d.C.^ 7.V.s.b.x.M.dXCXeX8XE M.M.M.U.%X%X*X                              ",
"                            %X%XuXNXVXm.b.W s.s.a.d.a.c.d.d.d.s.G.J.g.v.BX].<XsXsX5XaXl.c.M.CXz.%X%XP.                          ",
"                          P.%X[.'.k.E { ..` W V.S._.CXW =.$.=.=.=.V.R.h.l.NXE P qXCXZ.aXwXN.'.v.'.wX%X%X                        ",
"                        %X%XW R.1.) 4.[ -.s...$.;.$.o z ' x s d ] x ` s.c.x.z.L.;.U aX$.=XgX$.v.x.x.x.].%XP.                    ",
"                      L.%XM.m.b.F.T 6.4.#.] <.@.` ] s s g f e t e t e 0 ) ~ x.VXCXE E aXeXCXdX$.h.j.l.VXc.%X*X                  ",
"                    *X%XM.CXNXfX6.#.] ] ' s x ] ` t < 0 1 e t 0 q q q : w w o.6.8XgXJ.d.C.gXW sXx h.Y l.x.v.%X                  ",
"                    %XSX) CX3X%.] #.#.s s ` z x q < 1 0 t 1 q 0 q q q : 1 C.6.J Y x.d.>X8Xd.wXi.gXR j.g.VXc.P.%X                ",
"                  P.K.] d.s.] ] @.z Y d.7.o.t q < 0 : q q < 0 < : < < : C.: 0.Z C.&.d.L.7X5XwX_.p.gXh.d.x.v.c.%XL.              ",
"                  %X7.V.^ $.] L t < t z 0 q r < -.f.7.V.s.) = < < F = : * f. .0 < q d.V r :XJ.5XjX6XB.N.c.v.l.>X%X              ",
"                %XR.^ ^ $.;.A.ZXx x s r < : f } J J p = } d.g.0...w h.j.: : ^ { > W.- C.- e V.(._.6XQ ;.n.m.^.CXU.%X            ",
"              *XI.ZX! ] c.v. .q z r : < V K H G 7.S.S.G.C.-.V p %.R.R.F.7.f.&.: : q D.e f.: z ;.>Xk.6X#.v.CX}.M.M.%X-X          ",
"              P.G.(.h.x.x.;.t z : < < G m m m $ Z.S.S.@.: - < # - - : V.C.C.g.V.6.p - W.J.: : _ $.T.k.rX$.^.].}.M.%XP.          ",
"              $X^.Q.$.@.] ) z 1 - : : v v 3 = f V.7.4.%.%.$.% z ..- = - 4 K % g.f.Y { q >.H.w X.r @.(.~.8Xb.z.}.}.x.%X          ",
"            1X=XnXC.=.g ) X q q s t N v N $ p - ; -.%.&.$.%.%.%...% - % % - % w +XmXJ F e Q.d 6 } ) :X5X!.^.^.}.}.n.%X          ",
"            %X~.~.;.g @X1 : < : 1Xv v N % $ * + 7.&.$.%.&.&.&.- q s ' x % % = 7.a.CX5Xh F Z.Q.: 8 5.X.!.~.E.^.zX[.].%X          ",
"            P.E.R.#.,XB 8 % ,X% * 6 n % < % %.V.W (.jXwXC.~ 7.7.s.,X=XY I.2XX ,X6.CXcX; &.0 Q.e < X.%.:X_.v.5XN.[.z.%X          ",
"            %XW.R.CXCXy.= 1XD : * < - 2X- g.7.^ ( 7.6.^ 7.7.7.7.^ W 7.V @ <X6.7.:XNXCX-.f.u G.] t : &.6.>X{.CXwXx.CXL.          ",
"            @XQ.E.x CXiXr.Y ..- 0 * 2XS j.6.d ;.7.Y Y.H.;.7.7.;.7.7.7.^ _ % @ Z.f.D.0X~ O.5.[ Z.d e 6.4.Q.~.CXm.aXgX%X          ",
"          P.Z.s.S.s yX;XW 0.4.< - c eXV.f $ V ^ :XI.I 4 + $ + + 5 $.7.7.7.+ = @ 2X5.E.6.: 5.D W.s < t _ d.7XAXNXaXgX=X          ",
"          %XfXY.z S b R %.- 2.4 @ 9X] $ ; E 7.2X=X% = % $ = = % n D &.7.7.4.% - ^ b Q.~ + K ..S.d t f t a.CXN.c.Y.CX=X*X        ",
"          P.ZXL.=XB 8 0 %  .7.- qXY.= 7 7.7.^ -.k % % % $ , , , , # A | X.7.% % 6.6.Z.~ 7 u C.S.F S e f d.SXd.c.T wXK.-X        ",
"        *XH.d.xX' v : @ # K & - F 2X$ 6.7.~ G 1.- : % $ %.% 7.-.$.$ 4.{ 7.V.3 % 5.c.W.W ^ + s.S.G.V.q f S.zXg.j.#.dXT.=X        ",
"        P.v.;.R 1 b t % 5 H = g H r.V.^ ^ :XJ = - # % = % % # &.$ $ -.6.7.7.$ % 4.D.c.7.7.S u.G.F.i e g.,Xg.C.$.3XgXP.          ",
"        L.].d.u.* b 1.% u - : : m 0 7.7.~ K.1 = H % % % % % V.F.> % J 7.7.w m % U.2XQ.k. .6.C.J.;.s u rXW.s C.E VXY.=X          ",
"        %XE.CXE t.B 1X$ u : 0 : Z 6.&.~ 6.9.# $ C % x % % % %.*.,XK 7.^ 7.$ $ = f.:XK.5X$ 6.f.W.< s h.rXF.=.7.n.$.%.%X          ",
"          U.p.] CX| ,X% - 0 q - Z ^ + U ! S.% $ 6 = e % % $ B 9XeX6.7.V.$ C % 7.~ c.R.d $ V...G q -.`.S.g u.g.j.T h.%X          ",
"          %XV.d.V.q.J - - : w - Z T.% ~ ~ F.# w 8 0.- = % % $ wX9X%.; # n % - 7.>X6.7.$ 4.v m H w j.c.F.] h.c.T ;.=.%X          ",
"          %Xv.g.V.! n = - < p - Z U.% ~ C.S.+ %.N 7.` - 1 % % % # 9 3 6.% = 6.U.V.hX% ;.v B G q d.j./.T :X;XA.CXY a.%X          ",
"          %Xc.xXMX! +.t : 4 i = 7 8.= V.eX<.4 V.7 #.;.* - f.' - z _ &.$ % %.6.( CX} 6.V.C C w h.d.S.U.R fXC.@XT E VX$X          ",
"          %XVXCX(.CXi 3 < < 5 - $ X.+ u NX2 ).^ a 4.0.-.' ..7.7.7.0.% 5 ^ 7.&.CXU 7.x.v m m V.J t H.V.d.kXCXQ $.;.vX%X          ",
"          %Xk.VXCXCXMXpXyX4 5 V * ,Xc % nXd i.~ 6.;.- 0 -.6.6.-.-.7.7.7.-.~ mX~ S.cXH m v J H f Z.Q.g.F X.#.z.|.vXfXL.          ",
"          %XXXXX.XD.v K + : 6 7 M ..+.* H./ g /.~ 7.7.$ % V 6.7.7.7.6.n 7.7.;.vXH.H C m m H K ) E.fX}.Y r.CXCXCXZXL.;X          ",
"          %XXXCXXXY.D.o.V A 3 7 V 4.wXO i xX$ :XD.7.7.7.% % % ; _ u n ^ X.7.V.) m n m 7 p 2.i.<X<XCXP 1XZXCXCXCXMX@X            ",
"          %X_..XXXXXVXG * SXuX5 8 F = qX- xXo.- 7X>X{ 7.o.% % = = = = % = $ n n n m @X: 5.gX,X:XZX8.9.CXCXhX6X}.$XI.            ",
"          $X$XXXXX.XsX7.J w.t.9 8 M %.r.k s xX$ % z - &.7.0.4 ; 6.s.s.s.%.C m C C @XX.V.VX>X6XZX,.q.ZXc.C.(.g.^.P.              ",
"          -X%Xn.R.XXXXT.4 ) ,.F 8 M M = r.@ _.! % % - C s.7.6.~ 7.7.6.^ C G 8 J O.q V o._ j.s.g.| ) $.-.a.h.nX%XL.              ",
"            %XF.d. XXXXX` I d O.8 8 n = * eX@ gX*.= % % $ 6 { 7 4 S _ A 5 X.,X@ ,X:.9.Z.d _ } 6 d =.$.;.c.N.wX%X                ",
"              %XNXwXoX.X X<.} = 8 _ M B = > 9X=  Xj + % = % % % % $ 4 _ &XL.%.2X8.9.*.f %.D = e ` $.h.nXc.'.$XL.                ",
"              $XR :XCXoX6Xg.` | @ r.8 M bXO O ,Xc V.w k k % O $ t.+ * <X_ ;X%.8.>.9.t f e - : 4XMXd.M.CXm.].%X                  ",
"                %Xd.).XXXXh.i.d.o.k 8 & v = = % % #XY.W 4.+ $ @ & @X0 $ = 0 :.>.f f s z - 0 x CXi.d.j.m.N.kX%X                  ",
"                L.;.s..XXXE.ZXi.CXk.k & r.v % % % - + *X>XD.2Xr.+.- = S 8.8.9.1 4 < 0 q 0 s $.2XnXk.x.'.`.$XI.                  ",
"                  %XR ZXXX.Xg.g.a.d.d.> 2Xy $ - = CX% % + s.C.7.7.9.8.8.) : e t y.: < < f $.E s.g.Q.BX].'.%X                    ",
"                  *X%XfX^. X.Xd.g.sXdXAX- qXw.2 0.- 3 * : < 4 f.V.lX: : < e 0 - : AX0 q W fXd.d.c.c.k.g.P.P.                    ",
"                    %X%XW ). X X.X.X).W ;.u.& - % f.w W < 0 1 0 w dXV.s.s.o.> - < e.; x s.jXu.a.g.d.S.I.P.                      ",
"                        P.$X(.).VX).).S.;.W CX4Xe w SXCXd._ 0 e q < 6 ..%.{ 0.%.f.^ v.M.n.V.^ CX! E >.P.                        ",
"                            K.%X>.;.;.H.;.u.x.' ` s g.l.s.! ZXw.< : - - : VXCX~ V.h.l.xX6.;.;.a.x.v.%X                          ",
"                                P.%XT =.=.$.x.c.z s i g.tXa.V.^ %.: - - % } 7.P ` ;.a.BXc.h.;.c.D.P.                            ",
"                                    %XK.#.#.#.h.iXd t V.s.s.;.CXD.^ W 7.F ^ jXOXCXCXCXCXVXNXtX&XP.                              ",
"                                      *X%XY.) ] L s g g.d.f.;XnX6.W CXq q E 0Xz.cXCXCXCXZXV.L.                                  ",
"                                          ;X%X%Xx ` o ) j.6.x f.p q z E =.W bXY $.#.-.%XP.                                      ",
"                                                P.P.K.<.<._ =.,.K.P.$X%XP.K.>.S.%X%X%X                                          ",
"                                                    1X%XP.P.L.K.%X&X%X*XI.P.%XL.-X                                              ",
"                                                                                                                                ",
"                                                                                                                                ",
"                                                                                                                                "
};
