/* XPM */
static char *_e6bd610d25b4cb6e7d0a7120638929aMXl22bQ3T0t3DBaH[] = {
/* columns rows colors chars-per-pixel */
"64 64 235 2 ",
"   c #006877",
".  c #007B85",
"X  c #007986",
"o  c #0A8A96",
"O  c #078A99",
"+  c #279F9F",
"@  c #0C97A7",
"#  c #149BA4",
"$  c #169BA8",
"%  c #129FB1",
"&  c #0EA5AF",
"*  c #18A1A8",
"=  c #1BA4AE",
"-  c #15A4B4",
";  c #1AA4B4",
":  c #1CAAB5",
">  c #18ABBA",
",  c #1AB1B9",
"<  c #2BA8A9",
"1  c #23ABB7",
"2  c #28ACB6",
"3  c #23ADBC",
"4  c #24B2BD",
"5  c #2AB3BE",
"6  c #2BB8BC",
"7  c #32B5BC",
"8  c #36B8BB",
"9  c #32BABE",
"0  c #40B8B6",
"q  c #43BBBF",
"w  c #4FC2BF",
"e  c #1FAFC0",
"r  c #1BB5C5",
"t  c #1CB7C8",
"y  c #1EBACB",
"u  c #1CBED4",
"i  c #24B4C4",
"p  c #2BB5C2",
"a  c #25BCC6",
"s  c #2DBAC5",
"d  c #28B7C9",
"f  c #24BDCB",
"g  c #2DBDCA",
"h  c #31B7C2",
"j  c #32BCC5",
"k  c #3ABDC4",
"l  c #33BECA",
"z  c #38BFC8",
"x  c #26BFD1",
"c  c #33BFD2",
"v  c #1EC1D7",
"b  c #1FC2D8",
"n  c #2FC0C6",
"m  c #27C2CE",
"M  c #2BC3CD",
"N  c #2EC9CD",
"B  c #3BC1C6",
"V  c #33C4CB",
"C  c #34C2CC",
"Z  c #3BC4CD",
"A  c #3CC9CE",
"S  c #24C3D4",
"D  c #2BC5D3",
"F  c #2EC9D4",
"G  c #23C5D9",
"H  c #2BC6DA",
"J  c #26C9DC",
"K  c #2DCADB",
"L  c #34C5D2",
"P  c #3BC6D2",
"I  c #35CAD4",
"U  c #3CCBD4",
"Y  c #31C7D9",
"T  c #34CCDA",
"R  c #3CCEDA",
"E  c #3BD0D7",
"W  c #35D2DF",
"Q  c #3CD2DC",
"!  c #25C7E1",
"~  c #2CCAE2",
"^  c #36CCE1",
"/  c #35D2E2",
"(  c #3CD4E2",
")  c #3BD8E5",
"_  c #3CD6EA",
"`  c #43C1C4",
"'  c #42C5CC",
"]  c #4BC3C8",
"[  c #44CACE",
"{  c #4BCACD",
"}  c #56C6C7",
"|  c #52CACC",
" . c #55D2CF",
".. c #41C7D1",
"X. c #48C6D1",
"o. c #43CCD4",
"O. c #4ACDD4",
"+. c #42CEDA",
"@. c #4BCEDA",
"#. c #52CED3",
"$. c #59CFD6",
"%. c #53CFD9",
"&. c #45D1D6",
"*. c #4CD1D5",
"=. c #44D2DB",
"-. c #4CD3DB",
";. c #44D8DD",
":. c #53D2D5",
">. c #5BD3D5",
",. c #57DAD7",
"<. c #5AD8D5",
"1. c #53D4DB",
"2. c #5AD6DB",
"3. c #54D9DD",
"4. c #5BD9DD",
"5. c #60CEC7",
"6. c #65D0C8",
"7. c #65D5D5",
"8. c #6BD5D3",
"9. c #63D9D6",
"0. c #6CDAD6",
"q. c #61D7D9",
"w. c #63DBDC",
"e. c #6BDCDC",
"r. c #73DED5",
"t. c #73DDDD",
"y. c #7ADFD9",
"u. c #63E1DF",
"i. c #6DE2DF",
"p. c #74E2DE",
"a. c #7BE4DD",
"s. c #43D4E2",
"d. c #4BD5E2",
"f. c #43DAE3",
"g. c #4CDBE3",
"h. c #44DBEB",
"j. c #4CDCEA",
"k. c #54D6E1",
"l. c #5BD5E1",
"z. c #54DBE2",
"x. c #5BDCE3",
"c. c #52DDE9",
"v. c #5BDFE9",
"b. c #63DDE3",
"n. c #6ADEE3",
"m. c #63DEE9",
"M. c #71DEE1",
"N. c #4DE3EE",
"B. c #54E1E6",
"V. c #5CE1E5",
"C. c #54E3EB",
"Z. c #5BE2EA",
"A. c #56E9EF",
"S. c #5DE9EE",
"D. c #4EE4F5",
"F. c #55E7F1",
"G. c #5DE7F1",
"H. c #5EEAF3",
"J. c #64E1E4",
"K. c #6BE2E4",
"L. c #65E9E7",
"P. c #64E4EB",
"I. c #6CE5EA",
"U. c #63EAEF",
"Y. c #6CE9EB",
"T. c #73E4E4",
"R. c #7BE5E4",
"E. c #74E9E6",
"W. c #7BE9E6",
"Q. c #74E5EA",
"!. c #7BE5E9",
"~. c #74EAEC",
"^. c #7BECEC",
"/. c #7DF0EE",
"(. c #62E6F1",
"). c #6CE7F1",
"_. c #64ECF3",
"`. c #6DEBF2",
"'. c #62EEFA",
"]. c #73EDF3",
"[. c #7BEDF3",
"{. c #73EDFD",
"}. c #6BF5F9",
"|. c #75F2F4",
" X c #7CF1F3",
".X c #74F5FA",
"XX c #7CF4FB",
"oX c #75F8FE",
"OX c #7DF9FD",
"+X c #86E1DF",
"@X c #82E7E4",
"#X c #83EBE5",
"$X c #88E9E7",
"%X c #83EDEC",
"&X c #8BEDEB",
"*X c #9AEAE7",
"=X c #92EEED",
"-X c #83F1EE",
";X c #8CF1EC",
":X c #8CF8EE",
">X c #94F2ED",
",X c #9CF4EF",
"<X c #91F9EF",
"1X c #82EDF2",
"2X c #8DEEF1",
"3X c #8AEEFA",
"4X c #84F2F3",
"5X c #8BF3F3",
"6X c #89F8F4",
"7X c #83F5FA",
"8X c #8BF4FA",
"9X c #82FAFE",
"0X c #8CFBFD",
"qX c #93F5F3",
"wX c #9CF6F3",
"eX c #98F9F6",
"rX c #9CFAF5",
"tX c #92F6F9",
"yX c #93FDFD",
"uX c #9BFCFC",
"iX c #A3F4EF",
"pX c #A4F6F7",
"aX c #ABF6F3",
"sX c #A4FAF5",
"dX c #ADF9F5",
"fX c #A4FDFD",
"gX c #ABFEFC",
"hX c #B2F9F5",
"jX c #B3FEFD",
"kX c #BCFEFD",
"lX c #C2FFFF",
"zX c #CCFFFF",
"xX c #D6FFFE",
"cX c #E2FFFF",
"vX c #E9FFFF",
/* pixels */
"h._ _ h.Q f.N.N.N./ h.j.D._ _ / / ^ J > t r D T / ) ) ~ K K F j.oXoX.XXXx.@.l Q =.( R Q / W f.f.B.L.L.;.f.f.f.f.Q W W W ) ) ) / ",
"j.h.s.g.D.H.F.j.( ( / T T T Y D D S K F v v G G S S b J G ~ K T s.=.-.k._._.G.j.h.s.s.( Q ;.g.A.A.}.,.;.s.s.) s.Q Q Q T K / ~ ! ",
"s.g.F.G.G.H.j.W K D H G H S H S u u t G v b v v b v b G J J ~ ^ Y H Q +.d.F.c.d.c.s.h.g.B.&.3.L.|.|..X'.'.'.'.H.H.H.S.A.c.j.f.s.",
"g.G.v.v.S.C.=.K G J G v u G G u u u u b b b v v J ! ! J H ^ R s.R s.( +.d.v.v.v.x.P.U.}.}.}.}.oXoXU.;.B.g.j.c.A.H._._._._.'.'.'.",
"{.).V.V.Z.z.U D J S J v G G b G G v v v b u G J ! ~ ! T s.{.0XyX].P.V.x.m.K.XX8X0X0X0X|.B.B.g.;.U M M / K D K F I I I I I E B.A.",
"XX.X.XoX|.(.R D S J v v v b v G G S G S G G G G J H ^ j.(.].yXuXqXyX0X7X7X7X7X1X8X[.4.[ [ 6 n M M t S J ~ K D d , g a m a M n m ",
"`.}._..XOXoXC.F m S v S S S S S S G S S H S J K ^ s.v.(.v.x.~.6XtX8X-XW./.E.Q.~.|.V.9 6 N , f F F S S K K D d 1 # # # # # N m m ",
";.=.o.O.o.O.R M S S S S m S m S G S H H H S T ( h.Z.v.P.P.V.J./.yX5X-X-X6X X[.[.J.*.E E N m D D D D G r S i ; O o . . . . , m v ",
"- D M D N D D F N J t t D x x f x ~ ~ c ^ Y g.S._.J.3.J.x.J.J.I.^.4X;X&X%X1X4X~.4.+.U E Q Y K S x x f r d > # O .   X o % x c x ",
"I F F F D m m y , m r r r r x H ! c T s.j.(.U.P.J.4.x.V.J.P.P.L.Y.4X6XyXuX0XI.x._.c.=.I T D H D J x d > > 4 3 @ o o $ p p d x x ",
"T T T T T F m r m m m m m D K T Y +.d.S.)._.x.-.-.V.:.V.J.L.Y..X|.XXXXXX9X{.%...-.N.f.s.( Y Y K H g r - g i 5 s s 1 ; > a D S x ",
"Q I I R I D I I N m n N f Y L s.c.v.U.)..X{.U.*.A O.3.Z.3.S.U.P.x.1.k.l.1.O.o.o.U R j.N.j.R I L L a V : 4 5 4 , 4 a g & r D d D ",
"c.;.g.B.E &.;.B.c.g.-.d.z.x.P.`.XXXXoXoX_.H.S.B.3.B.=.Q =.Q Q +.Q d.d.-.d.+.+.U U I R s.f.j.=.=.U V s : 4 V s : > M M c C a g U ",
"g.g.3.;.A V =.;.g.g.-.z.S._.oXXXY.3.-.+.E U N V N I T T T T T T T R Q R +.U R I I M L Q s.=.g.&.j 6 9 n n n 4 a i L L U U 5 s =.",
"Q ;.E I I E I E E &.-.C.Z.B.o.P s V a f M g I T M M T W T T T T T T E R U R U I I Q =.=.=.g.c.-.B 9 k A A n s D M C P U U &.j U ",
"T T E T E T I R =.-.Z.(.(.+.a M f f d d g I F F F F D M F T T E T T T E U I U I U =.=.f.g.-.g.S.U.,.[ ` 9 6 U I C R +.&.-.A * a ",
"I E Q ( s.s.s.d.c.).].(.;.U I N N I i % i > d H S M S m m N N I T E =.s.s.R =.=.=.Q =.=.f.-.=.-.B.L.|.E.#.1.O.@.s.C.z.c.z.=.U U ",
"F I I R +.=.c.(._.).x.&.I I N N N a ; % @ e d c M S m N m N N U E =.Q =.h.s.+.=.;.;.=.=.=.=.U U &.V.L.OX7X).P.m.Z.z.z.-.-.-.U Z ",
"E Q =.+.@.J.].{.~.J.[ n I I M m M a > @ @ d x c S M M M M N N N A I P +.d.&.+.=.=.=.=.=.&.U U U R @.-.z.m.XX[.I.m.3.3.3.-.-.-.@.",
"T Q -.P.].[.[.[.Y.:.Z V g N D m M f g d c c c x g M D M M N V V n s L o.+.=.=.Q Q =.=.=.=.=.=.+.@.g.c.c.v.).I.K.4.2.1.-.*.O.1.O.",
"d.d.m.^.5X&X5X%Xu.{ &.I Y F D M g D d i 3 ; d i t g x D g a V n 1 # j Z P L P Q U =.=.&.&.=.R R s.d.d.d.k.z.1.I.J.z.z.4.V.J.J.E.",
"@.z.].8X&XqXeX-X<.[ E I T Y K H D Y c e @ % d c L g I I V V p - : # 1 P U U P R I U U U U V U @.@.d.d.d.k.z.4.J.I.x.L.|.7X/.i.p.",
"z.].8XeXsXsXuXE. .&.E T T K K Y D D Y L c d c c g Y D 3 a s 6 5 1 $ $ h Z U I E E I U =.+.V U &.s.@.1.k.x.4.L.^.^.6XeXyX-X-Xi.8.",
"m.7XuXfXiXsX#X .[ &.Q T T F x c M Y Y Y c c c d g g C 4 a P P 6 $ $ 2 $ 5 k C o.&.o.*.-.-.*.o.o.@.l.P.n.].|.e.-XuXrXeX=Xa.8.r.%X",
"m.1XtXeX5X5Xi.<.,.=.I L R i % e L L Y D L L Y L D g M V s s 6 n ..z C ' ' { K.[.9.w.~.|.Y.u.w.K.i.T.p.e.0.p.<X<X>XwXsXfX>X=XeX&X",
"Q.7X%XM.e.~.Y.u.,.;.P L +.L i h L L L L a M L Y I V V V C p : s V Z < 2 #. X^.1X%XW.^.4X6X6X-X1X%X0.i.5.6.r.6.a.;X,XwXfXfXqX=XwX",
"1X[.n.w.K.K.Y.K.z.k.U +.=.P l U U s =.g V U I R &.A U E P i i +...-.' ' n.Q.T.W.-X5X6X4XE.4XtXuXqXa.a.a.R.a.8.W.W.qXrXgXjXgXwX:X",
"8Xn.w.b.I.P.K.m.J.1.k.-...6 j ..A U =.&.z.g.-.-.;.E &.*.+.@.@.@.1.%.4.w.[.E.W.%X-X-XW.i.9.p.%X5XeX@Xp.#Xp.p.E.~.~.E.1XtXuX2X!.e.",
"Q.n.b.b.q.b.Q.I.b.] m.x.m.4.* 8 1.3.3.3.3.3.1.*.*.-.&.-.1.4.b.n.7X~.~.^.^.^.!.y.M.%XT.i.E.E.E./.%X<XyXW.p.>.<.x.4.@.1.%.:.X.@.*.",
"I.].].).).).{.[.n.#.].].].m.' ` I..X|.|.Y.J.:.| O.3.1.4.I.[.[.8X4X^.^.%X%X%X%X%X@X1X%X^.E./././.4XW.E.9. .` [ o.O.o.Z Z U P U R ",
"m.b.m.b.b.l.x.x.l.z.4.4.J.b.J.~.|. X|.].].|.Y. .K.7X8X4X!.4X8X5XW.%X%X%X5X2X2X2X2X2X%X%X/././.E.E.u.<. .{ *.A Z C V U U Z s I U ",
"P.b.b.l.l.l.x.z.x.O.{ :.4.b.J.I.4.#.:.4.4.4.Y.Y.E. X4X[.^.Q.Q.T.Q.Q.~.[.1X4X1X4X5X8X6X^.w.9.i.i.E.u.*.*.*.A Z C P s s V U V A N ",
"P.m.m.P.P.V.V.V.c.z.z.x.v.x.x.z.V.-.3.-.-.z.3.x.4.2.2.X.{ 8 7 { O.:.4.V.4.:.x.P.Y.J.P.x.{ %.m.[.[.4.@.@.+.A I I I C C Z P g 4 l ",
"b.l.v.z.z.z.-.-.3.Z.Z.z.c.x.z.-.-.U g.f.;.-.O.k.3.3.' k [ Z ..&.&.o.-.*.&.[ O.*.&.-.&.&.*.@.l.n.T.%.O.[ Z P L I I V V g s g 4 s ",
"%.-.-.-.-.O.o.E +.o.-.Z ..-.-.3.&.-.;.O.O.-.+.%.k.k.@.@.O.o.U A j O.-.-.=.O.&.O.A [ A A -.%.b.Q.T.:.X.Z j V V I P M s p s V P g ",
"o.@.+.&.+.=.o.+.U Z ' p h A U &.&.+.d.-.-.-.%.v.z.@.@.+.@.o.k U A A &.-.&.O.&.O.A A B A *.4.[.3XR.>.*.' B C V V M P l p = 4 s p ",
"5 v.c.-.l O.C Z o.p j +.A Z ..o.&.&.&.@.@.k.k.k.l.k.@.+.Z Z ..+.-.+.-.-.-.O.O.&.-.A o.*.:.m.4X5X#X>.:.[ [ A Z V M = 5 Z p s j s ",
"` +.=.@.+.o.o.1 k V Z j 4 o.+.+.&.O.U @.@.k.%.@.k.k.k.X.p o.O.-.O.&.g.3.-.-.&.*.-.g.g.V.*.>.0XuX;X9.:.>.[ [ o.U U l C Z j j l h ",
"V U I L U &.U C A s V +.U ;.+.=.+.-.@.-.k.m.X.k @.1.@.@.*.Z A &.-.3.B.z.-.-.-.-.-.-.-.3.{ >.yXsX&Xe.{ { { o.&.&.o...U P z j k l ",
"Z N n g C U P U g.&.+.j.=.=.=.+.P P @.O.` %.#.#.4.X.1.1.*.[ *.*.-.-.-.-.O.*.-.-.-.-.&.:.O.Q.4X;Xa.7.{ k [ *.&.A U o.k ....A Z C ",
"C l 2 p l l L C C V V P Q =.g.z Z 3 ..%.k.>.w.b.>.4.1.1.1.2.3.3.z.*.*.o.' o.' o.1.@.k.1.4.K.T.T.K.1.-.O.O.A ..6 j B Z Z k j Z B ",
"5 h 1 1 z z l l V i V P g P ^ U s.k.@.@.z.Q.4XE.e.2.2.1.:.3.,.3.3.3.-.3.3.O.o.' o.O.3.J.K.Y.e.>.:.-.=.+.U U U Z 1 6 l B s j C s ",
"h h p h s j g l j l g P I l L I +.s.d.c.x.~.^.5X:XK.w.>.2.<.3.:.*.1.3.3.3.3.-.*.X.@.1.m.I.T.9.>.X.-.+.U P P Z U 4 5 C C l B B C ",
"j h z p 3 p s g a V M C V U L U L L s.s.-.b.4XqX;X2XM.e.w.9.:.*.*.-.*.O.*.;.4.V.:.z.l.w.n.K.4.:.O.O.U P z Z l l V V j l 6 3 a 5 ",
"p 2 1 h j h l c C g l > d l L U Y U L U -.2.^.eX,XeX&XR.t.7.<.>.*.*.*.*.[ *.O.*.4.J.I.Q.K.w.:.[ ....U Z l k l l l l s l l p p 1 ",
"3 e 2 3 s l s : g l L l L U c P U +.R U @.1.K.;XwXiXiX=X#X8.$.$.,.>.4.4.3.` :.4.m.n.Q.[.^.4.:.[ U U P A U l l V l l s s g p p l ",
"h 1 O 1 s g d ; g P L U c ..c L c o.o.+...O.K.qXiXhXhXdXwX$Xt.>.<.>.4.u.w.w.K.Y.Y.Q.[.^.[.J.2.&.U Z C z C z l l l l g l s s g s ",
"g p i d j s s g g i l c z L L l j z o.@.+.1.n.>XhXzXzXlXjXeXR.M.e.n.I.~.K.2.>.2.~.^.1X!.E.K.3.[ ..o.P Z l k l l k C C Z l p l l ",
"c d j g g g g g i @ i C l d l P X.X.@.+.@.l.3XlXcXvXvXxXlXgX2X%X[.Q.Q.Q.} ] | 0 i.^.W.:X#Xa.9.:.*.[ A Z A k Z ....z l z l 6 $ 5 ",
"d j g g g g l g l p l z g j l Z c P z ..k.m.3XkXxXxXxXlXaX&X1XQ.9.w.n.m.w < + } i.E.#X;X#XW.0.9.2.[ X.z B 7 5 k z Z Z z k s 5 h ",
"g g g g c g g c a z P C j P L P P ..P ..k.v.1XpXaXaX*X+X@XM.>.#.x.l.2.l.1.q { b.K.E.-X;X;X#Xi.u.b.z.1.1.O.k 7 k k ' z z B j B z ",
"g l g l l l L g : s g P P ..c P c +.@.+.@.m.[.tX,X=X&Xt.q.b.4.2.l.1.1.1.2.J.b.9.e.T.:X#X;XW.t.J.u.4.4.@.X.X.{ { ` k ` ..o.7 j A ",
"j s g L l l l z L c c z P +.l l R +.s.=.1.I.6X&XwX;XR.q.>.l.3.3.z.-.X.x.1.:.q #.T.!.@X;X;Xa.e.7.| >.x.4.:.{ :.2.:.%.O.*.O.[ [ [ ",
"l z z 6 p l l j p l z P P +.+...@.-.-.k.m.^.qXrXrX;XE.n.4.1.1.1.1.X.:.*.2.| q q.^.%X>X>X8X@X8.7.q.>.>.2.4.4.:.| <.:.2.:.{ :.:.:.",
"l Z j l Z C Z P Z P c ..c +.+.@.-.d.k.m.[.qX,XsXqXr.9.x.4.x.x.x.4.3.V.4.K.~.4X0X5XuXeX$X@X} e.R.T.2.w.>.>.>.` :.:.:.*.{ 1.3.2.2.",
"j z j 5 Z k z P P X...+.X.@.....k.4.m.[.eXgXiX,X;Xe.w.2.1.x.x.w.w.4.J.b.K.Q.4X4X5X5XW.R.t.7.e.e.K.b.x.J.4.2.#.2.:.{ *.:.2.<.:.:.",
"o...k j z P ' Z ' O.o.*.*. .#.*.%.m.3XfXgXkXaX=X8.| { { 2.<.4.4.:.2.4.x.b.Q.n.e.e.e.9.$.| #.%.X.%.1.l.@.%.k.k.l.z.4.:.1.:.4.4.>.",
"O.O.@.O.O.O.O.O.O.%.2.<.<.w.w.m.Q.M.$XjXkXhXdXr.w >.| *.O.<.3.4.:.3.4.4.2.>.9.q.7.#.@.1.` X.@.' z Z ..P X.+.X.o.O.-.z.2.1.4.| { ",
"&.O.3.1.@.O.@.1.1.1.2.b.J.Q.!.[.1X=X*XkXkXsX=X0.u.u.4.3.3.:.>.3.2.4.4.4.q.K.n.7.| O.o.o.h ..@.P P z P z U P A Z Z P B B [ *.7 < ",
"o.o.O.@.%.%.1.1.k.1.4.J.I.n.Q.%X2XgXkXkXdXwXa.e.L.,.,.*.:.:.*.,.3.4.b.J.K.b.2.#.#.{ o.[ P o.P a g L L l z z V Z z P P ..B B B 2 ",
"o.O.o.O.X.*.-.-.-.3.3.1.:.J.n.@XwXkXlXlXaX#Xt.n.J.<.:.*.2.:.2.:.:.b.m.n.K.n.w.:.:.O...A Z P U Z l L l l j j V C l z z l B j B B ",
"' ' ....O.X.X.*.*.-.3.k.4.2.n.2XjXzXzXjX,XR.p.0.9.K.J.w.4.l.4.4.4.n.e.n.J.m.4.2.*.{ o.[ A Z C C C l l l s P C C i j j j 9 B 9 B ",
"A [ O.%.*.X.O.@.@.-.k.k.x.l.!.pXkXzXlXdX$X@Xt.7.} q >.m.n.b.n.n.i.T.n.e.w.w.4.2.*.{ O.[ o.U A C V Z s 6 C l C j Z l z z z 5 2 6 ",
"B ' o.X.@.@.%.1.1.*.%.l.b.!.8XgXkXkXdX,X#X#X%X+X0.} 7.t.0.Q.Q.T.R.~.E.e.q.>.1.%.*.*.[ [ O.o.A Z C P l l Z P C Z U A Z P Z k k 9 "
};
