/* XPM */
static char *e252c9ba6b15456a81b7d22ea0cb75a12HjsRQSgk96aWT3n[] = {
/* columns rows colors chars-per-pixel */
"64 64 10 1 ",
"  c None",
". c #614414",
"X c #17094E",
"o c #1E1573",
"O c #E9C129",
"+ c #E3936B",
"@ c #1E478A",
"# c #4178C2",
"$ c #6DE6F2",
"% c #F5DDA6",
/* pixels */
"                                                                ",
"                                                                ",
"                                                                ",
"                                                                ",
"                                                                ",
"                                                                ",
"                                                                ",
"                                                                ",
"                                                                ",
"                                                                ",
"                                                                ",
"                                                                ",
"                                                                ",
"                                                                ",
"                                                                ",
"                                                                ",
"                                                                ",
"                                                                ",
"                                                                ",
"                                                                ",
"                                                                ",
"                                                                ",
"                                                                ",
"                                                                ",
"                                                                ",
"                                                                ",
"                               O                                ",
"                   $#     XXX.OOO.X                             ",
"                   @$#    XXXX...XX                             ",
"                    @$#    XXXXXXX .                            ",
"                     @$#  . XXXXXX  O                           ",
"                      @$#O  XX+++                               ",
"                       @$#   X%%%                               ",
"                        @$#   ++                                ",
"                         @$@@%%%%%@                             ",
"                          @@@@%%%@@@                            ",
"                          @@o@@@@@o@@                           ",
"                         @@ooooooo o@@                          ",
"                        $@@o$$$$$$  o@@                         ",
"                       $$@o oooooo   o$$$                       ",
"                      @@@@@@%oooooo  $$$@                       ",
"                     oooooo%%oooooo  $$@@                       ",
"                     $$$$  oooooooo# $$@@                       ",
"                    $$$$#$$oooooooo$$$$$o                       ",
"                    $$$$###oooooooo##$$$                        ",
"                   $$$$  ##oooooooo##$$$                        ",
"                  $$$$    ooooooooo# $$$@                       ",
"                 $$$$     oooooooooo $$$+                       ",
"                 $$$      oooooooooo $$$XX                      ",
"                $$$$      oooooooooo  $$XX                      ",
"                $$$$      oooooooooo  $$  X                     ",
"                $$$$     ooooooooooo  $$   X                    ",
"                 $$$     ooooooooooo ##     X                   ",
"                  $$     ooooooooooo #$      X                  ",
"                  $$$    ooooooooooo #$                         ",
"                   $$    ooooooooooo #$      X                  ",
"                   $$$   ooooXooooXoo#$                         ",
"                   $$$   ooooXooooXoo#$      @                  ",
"                   $$$  ooXooXXoooXoo#$      #                  ",
"                    $$# ooXooXXoooXoo#$       $                 ",
"                    $$# ooXooXXoooXoo#$                         ",
"                     $# oXXooXXoooXoo#$                         ",
"                    $#  oXXo@@XXoXXoo#$$                        ",
"                                                                "
};
