/* XPM */
static char *result[] = {
/* columns rows colors chars-per-pixel */
"64 64 252 2 ",
"   c #293C41",
".  c #293C42",
"X  c #293D42",
"o  c #293C43",
"O  c #2E3E42",
"+  c #2C3E45",
"@  c #384142",
"#  c #3D4242",
"$  c #3B4245",
"%  c #31414A",
"&  c #33414B",
"*  c #36424A",
"=  c #324549",
"-  c #33424C",
";  c #33434C",
":  c #34444F",
">  c #36454E",
",  c #364754",
"<  c #384551",
"1  c #3B4754",
"2  c #3A4951",
"3  c #3D4A51",
"4  c #3E4955",
"5  c #3C4856",
"6  c #3A4959",
"7  c #3D4E59",
"8  c #3F4D5E",
"9  c #39545E",
"0  c #3D5460",
"q  c #3D5660",
"w  c #434545",
"e  c #40454A",
"r  c #4F4A4B",
"t  c #574A42",
"y  c #534945",
"u  c #5A4C45",
"i  c #554C4A",
"p  c #544C4E",
"a  c #5F4F4A",
"s  c #404A59",
"d  c #414B5B",
"f  c #424E59",
"g  c #454C59",
"h  c #434C5C",
"j  c #4F4F59",
"k  c #435156",
"l  c #455658",
"z  c #4B565D",
"x  c #47585A",
"c  c #48595D",
"v  c #4A5A5C",
"b  c #4E5F5F",
"n  c #664F42",
"m  c #71554C",
"M  c #78564B",
"N  c #7D584B",
"B  c #695554",
"V  c #6A575C",
"C  c #484F61",
"Z  c #455360",
"A  c #4A5063",
"S  c #4F5C62",
"D  c #4B5368",
"F  c #4F5368",
"G  c #4D556B",
"H  c #4F566E",
"J  c #4E596E",
"K  c #515665",
"L  c #5A5563",
"P  c #5C5561",
"I  c #505E64",
"U  c #515768",
"Y  c #51556B",
"T  c #52556B",
"R  c #555568",
"E  c #53566E",
"W  c #545868",
"Q  c #535971",
"!  c #555973",
"~  c #545C70",
"^  c #565B75",
"/  c #575B75",
"(  c #565D76",
")  c #595C70",
"_  c #515C78",
"`  c #545E7C",
"'  c #595F7D",
"]  c #566366",
"[  c #5C646F",
"{  c #4C6070",
"}  c #556277",
"|  c #546477",
" . c #5E6671",
".. c #5C6177",
"X. c #5F6177",
"o. c #5F6774",
"O. c #58667E",
"+. c #64656F",
"@. c #626474",
"#. c #616873",
"$. c #636976",
"%. c #656D76",
"&. c #6C6A76",
"*. c #666A79",
"=. c #676C7B",
"-. c #6B6B79",
";. c #696D7A",
":. c #6F6D7C",
">. c #6D717D",
",. c #787B7D",
"<. c #7A7C7F",
"1. c #845C53",
"2. c #84615B",
"3. c #946253",
"4. c #9A655E",
"5. c #99685E",
"6. c #A56A5D",
"7. c #A96A5E",
"8. c #9C6B63",
"9. c #AC6B60",
"0. c #AB6D67",
"q. c #AD736C",
"w. c #AD756D",
"e. c #C77C76",
"r. c #CD7F79",
"t. c #CF827F",
"y. c #576282",
"u. c #596180",
"i. c #5C6282",
"p. c #5F6584",
"a. c #5C6587",
"s. c #5F678A",
"d. c #5A6C89",
"f. c #5D6E8B",
"g. c #5F6B8D",
"h. c #527786",
"j. c #527A89",
"k. c #507E88",
"l. c #5A7C8E",
"z. c #5C7190",
"x. c #5B7D91",
"c. c #5F7D97",
"v. c #60688C",
"b. c #657286",
"n. c #687388",
"m. c #6D768D",
"M. c #707685",
"N. c #767982",
"B. c #76768B",
"V. c #737F8D",
"C. c #626B91",
"Z. c #656E93",
"A. c #636D94",
"S. c #626F94",
"D. c #607293",
"F. c #617495",
"G. c #617696",
"H. c #697091",
"J. c #697396",
"K. c #677993",
"L. c #607B97",
"P. c #707890",
"I. c #757990",
"U. c #767F95",
"Y. c #747E9A",
"T. c #55818D",
"R. c #588390",
"E. c #5E8298",
"W. c #5D8499",
"Q. c #5E8A99",
"!. c #5C899A",
"~. c #5C8B9A",
"^. c #5B909B",
"/. c #7C8A83",
"(. c #7B8189",
"). c #7D8288",
"_. c #628C97",
"`. c #6A8A98",
"'. c #74869B",
"]. c #79839C",
"[. c #828187",
"{. c #858388",
"}. c #848F8A",
"|. c #89888B",
" X c #86908D",
".X c #8D968F",
"XX c #858E93",
"oX c #888890",
"OX c #8C8C93",
"+X c #808699",
"@X c #848D9E",
"#X c #879392",
"$X c #8C9492",
"%X c #8A9595",
"&X c #8E9595",
"*X c #87909F",
"=X c #8F989A",
"-X c #969695",
";X c #979897",
":X c #959B97",
">X c #999996",
",X c #919A9C",
"<X c #989D99",
"1X c #98A498",
"2X c #9BA69B",
"3X c #9EA49E",
"4X c #A1A49E",
"5X c #96A0A6",
"6X c #98A1A1",
"7X c #9BA5A4",
"8X c #A2A6A0",
"9X c #A0A9A0",
"0X c #A2AAA2",
"qX c #A1A8A6",
"wX c #A3ACA5",
"eX c #A5ADA4",
"rX c #A8ABA3",
"tX c #A5AFAA",
"yX c #ACB2A7",
"uX c #A6B0AD",
"iX c #ADB3AA",
"pX c #A8B1AC",
"aX c #CF8981",
"sX c #C0858C",
"dX c #D68E95",
"fX c #E08988",
"gX c #E89297",
"hX c #E7969F",
"jX c #E8999A",
"kX c #E89C9B",
"lX c #DE98A5",
"zX c #E49AA8",
"xX c #EF9FAE",
"cX c #E4A1AB",
"vX c #F5A2B1",
"bX c #F7A5B6",
"nX c #F7A7B7",
"mX c #F7AEBA",
"MX c #EFB4B7",
"NX c #F7BABF",
"BX c #FCABC1",
"VX c #FFAEC6",
"CX c #FCB2C4",
"ZX c #FFB0C7",
"AX c #FFB5C9",
"SX c #FFB7CA",
"DX c #F7C0C2",
"FX c #FFC3CF",
"GX c #FCC7CD",
"HX c #FFCAD2",
"JX c #FFD3D6",
"KX c None",
/* pixels */
"KXKXKXKXKXKXKXKXKXKXKXKXKXKXKXKXKXKXKXKXKXKXKXKXKXKXKXKXKXKXKXKXKXKXKXKXKXKXKXKXKXKXKXKXKXKXKXKXKXKXKXKXKXKXKXKXKXKXKXKXKXKXKXKX",
"KXKXKXKXKXKXKXKXKXKXKXKXKXKXKXKXKXKXKXKXKXKXKXKXKXKXKXKXKXKXKXKXKXKXKXKXKXKXKXKXKXKXKXKXKXKXKXKXKXKXKXKXKXKXKXKXKXKXKXKXKXKXKXKX",
"KXKXKXKXKXKXKXKXKXKXKXKXKXKXKXKXKXKXKXKXKXKXKXKXKXKXKXKXKXKXKXKXKXKXKXKXKXKXKXKXKXKXKXKXKXKXKXKXKXKXKXKXKXKXKXKXKXKXKXKXKXKXKXKX",
"KXKXKXKXKXKXKXKXKXKXKXKXKXKXKXKXKXKXKXKXKXKXKXKXKXKXKXKXKXKXKXKXKXKXKXKXKXKXKXKXKXKXKXKXKXKXKXKXKXKXKXKXKXKXKXKXKXKXKXKXKXKXKXKX",
"KXKXKXKXKXKXKXKXKXKXKXKXKXKXKXKXKXKXKXKXKXKXKXKXKXKXKXKXKXKXKXKXKXKXKXKXKXKXKXKXKXKXKXKXKXKXKXKXKXKXKXKXKXKXKXKXKXKXKXKXKXKXKXKX",
"KXKXKXKXKXKXKXKXKXKXKXKXKXKXKXKXKXKXKXKXKXKXKXKXKXKXKXKXKXKXKXKXKXKXKXKXKXKXKXKXKXKXKXKXKXKXKXKXKXKXKXKXKXKXKXKXKXKXKXKXKXKXKXKX",
"KXKXKXKXKXKXKXKXKXKXKXKXKXKXKXKXKXKXKXKXKXKXKXKXKXKXKXKXKXKXKXKXKXKXKXKXKXKXKXKXKXKXKXKXKXKXKXKXKXKXKXKXKXKXKXKXKXKXKXKXKXKXKXKX",
"KXKXKXKXKXKXKXKXKXKXKXKXKXKXKXKXKXKXKXKXKXKXKXKXKXKXKXKXKXKXKXKXKXKXKXKXKXKXKXKXKXKXKXKXKXKXKXKXKXKXKXKXKXKXKXKXKXKXKXKXKXKXKXKX",
"KXKXKXKXKXKXKXKXKXKXKXKXKXKXKXKXKXKXKXKXKXKXKXKXKXKXKXKXKXKXKXKXKXKXKXKXKXKXKXKXKXKXKXKXKXKXKXKXKXKXKXKXKXKXKXKXKXKXKXKXKXKXKXKX",
"KXKXKXKXKXKXKXKXKXKXKXKXKXKXKXKXKXKXKXKXKXKXKXKXKXKXKXKXKXKXKXKXKXKXKXKXKXKXKXKXKXKXKXKXKXKXKXKXKXKXKXKXKXKXKXKXKXKXKXKXKXKXKXKX",
"KXKXKXKXKXKXKXKXKXKXKXKXKXKXKXKXKXKXKXKXKXKXKXKXKXKXKXKXKXKXKXKXKXKXKXKXKXKXKXKXKXKXKXKXKXKXKXKXKXKXKXKXKXKXKXKXKXKXKXKXKXKXKXKX",
"KXKXKXKXKXKXKXKXKXKXKXKXKXKXKXKXKXKXKXKXKXKXKXKXKXKXKXKXKXKXKXKXKXKXKXKXKXKXKXKXKXKXKXKXKXKXKXKXKXKXKXKXKXKXKXKXKXKXKXKXKXKXKXKX",
"KXKXKXKXKXKXKXKXKXKXKXKXKXKXKXKXKXKXKXKXKXKXKXKXKXKXKXKXKXKXKXKXKXKXKXKXKXKXKXKXKXKXKXKXKXKXKXKXKXKXKXKXKXKXKXKXKXKXKXKXKXKXKXKX",
"KXKXKXKXKXKXKXKXKXKXKXKXKXKXKXKXKXKXKXKXKXKXKXKXKXKXKXKXKXKXKXKXKXKXKXKXKXKXKXKXKXKXKXKXKXKXKXKXKXKXKXKXKXKXKXKXKXKXKXKXKXKXKXKX",
"KXKXKXKXKXKXKXKXKXKXKXKXKXKXKXKXKXKXKXKXKXKXX ; C Y Y Y Y Y Y Y Y Y Y Y Y Y Y C ; X KXKXKXKXKXKXKXKXKXKXKXKXKXKXKXKXKXKXKXKXKXKX",
"KXKXKXKXKXKXKXKXKXKXKXKXKXKXKXKXKXKXKXKXKXKX9 0 J ( } | | } ( ^ ^ ( } | | } ( J 0 9 KXKXKXKXKXKXKXKXKXKXKXKXKXKXKXKXKXKXKXKXKXKX",
"KXKXKXKXKXKXKXKXKXKXKXKXKXKXX ; C Y Y / s.z.j.h.d.f.l.R.R.l.f.s.s.f.l.R.R.l.f.d.h.j.z.s./ Y Y C ; X KXKXKXKXKXKXKXKXKXKXKXKXKXKX",
"KXKXKXKXKXKXKXKXKXKXKXKXKXKX9 q { | | O.g.F.E.W.L.c.~.^.~.E.F.A.A.F.E.~.^.~.c.L.W.E.F.g.O.| | { q 9 KXKXKXKXKXKXKXKXKXKXKXKXKXKX",
"KXKXKXKXKXKXKXKXX ; C / s.z.j.k.T.R.R.x.D.S.F.L.W.~.^.~.c.F.S.A.A.S.F.c.~.^.~.W.L.F.S.D.x.R.R.T.k.j.z.s./ C ; X KXKXKXKXKXKXKXKX",
"KXKXKXKXKXKXKXKX6 Z o.M.U.'.`._.Q.!.!.E.F.A.A.F.E.Q._.`.'.].].].].].].'.`._.Q.E.F.A.A.F.E.!.!.Q._.`.'.U.M.o.Z 6 KXKXKXKXKXKXKXKX",
"KXKXKXKXX ; C Q ` n.=XwXtX7XXXV.K.G.G.F.S.A.A.S.F.K.V.XX7XuXuXuXuXuXuX7XXXV.K.F.S.A.A.S.F.G.G.K.V.XX7XtXwX=Xn.` Q C ; X KXKXKXKX",
"KXKXKXKX  % s ~ m.@X6X0X0X3X-XoXI.H.Z.A.A.A.A.J.Y.+XOX-X3X0X0X0X0X0X0X3X-XOX+XY.J.A.A.A.A.Z.H.I.oX-X3X0X0X6X@Xm.~ s %   KXKXKXKX",
"KXKXKXKX  + % I %X6X(.>.>.).3X8XoXB.H.A.A.A.A.Y.5XpXiX3X).>.>.>.>.>.>.).3XiXpX5XY.A.A.A.A.H.B.oX8X3X).>.>.(.6X%XI % +   KXKXKXKX",
"KXKXKXKX  . . l /.}.[ C C  .$X3X-XOX+X].].].].*XqXyXeX$X .C C C C C C  .$XeXyXqX*X].].].].+XOX-X3X$X .C C [ }./.l . .   KXKXKXKX",
"KXKXKXKX  . . = l x 2 - - f  .).3XiXpXuXuXuXuXqX;X|.N. .f - - - - - - f  .N.|.;XqXuXuXuXuXpXiX3X). .f - - 2 x l = . .   KXKXKXKX",
"KXKXKXKX  . . . . . . . . % s  .$X0X0X0X0X0X0X:X<.+.K g e # # # # # # e g K +.<.:X0X0X0X0X0X0X$X .s % . . . . . . . .   KXKXKXKX",
"KXKXKXKX  . . . . . . . . + % f  .>.>.>.>.>.>.#.z 3 > e u n n n n n n u e > 3 z #.>.>.>.>.>.>. .f % + . . . . . . . .   KXKXKXKX",
"KXKXKXKXX o . . . . . . . . . % s C C C C C C s % O @ y N 3.5.8.8.5.3.N y @ O % s C C C C C C s % . . . . . . . . . o X KXKXKXKX",
"KXKXKXKXKXKXo . . . . . . . . + % - - - - - - % + @ t N 7.e.dXlXlXdXe.7.N t @ + % - - - - - - % + . . . . . . . . o KXKXKXKXKXKX",
"KXKXKXKXKXKX  . . . . + % - - - - - - - - - - * $ i 2.w.aXkXmXAXZXnXjXaXw.2.i $ * - - - - - - - - - - % + . . . .   KXKXKXKXKXKX",
"KXKXKXKXKXKX  . . . . % s C C C C C C C C C C j a 2.sXcXMXDXGXFXAXCXNXMXcXsX2.a j C C C C C C C C C C s % . . . .   KXKXKXKXKXKX",
"KXKXKXKXKXKX  . . + % 1 A T T T T T T T T R L V 1.q.zXSXHXJXJXHXSXAXFXFXAXzXq.1.V L R T T T T T T T T A 1 % + . .   KXKXKXKXKXKX",
"KXKXKXKXKXKX  . . % s A F T T T T T T T T L B 1.9.t.xXSXHXJXJXHXSXZXAXAXZXxXt.9.1.B L T T T T T T T T F A s % . .   KXKXKXKXKXKX",
"KXKXKXKXKXKX  . . - C T T T T T T T T T T P m 3.e.gXbXAXFXHXHXFXAXVXVXVXVXbXgXe.3.m P T T T T T T T T T T C - . .   KXKXKXKXKXKX",
"KXKXKXKXKXKX  . . - C T T T T T T T T T T P m 5.dXbXBXZXAXSXSXAXZXVXVXVXVXBXbXdX5.m P T T T T T T T T T T C - . .   KXKXKXKXKXKX",
"KXKXKXKXKXKX  . . % s A F T T T T T T T T P m 8.lXVXVXVXVXVXVXVXVXVXVXVXVXVXVXlX8.m P T T T T T T T T F A s % . .   KXKXKXKXKXKX",
"KXKXKXKXKXKX  . . + % 1 A T T T T T T T T P m 8.lXVXVXVXVXVXVXVXVXVXVXVXVXVXVXlX8.m P T T T T T T T T A 1 % + . .   KXKXKXKXKXKX",
"KXKXKXKXKXKXo . . . . % s C C C C A F T T P m 5.dXbXBXVXVXVXVXVXVXVXVXVXVXBXbXdX5.m P T T F A C C C C s % . . . . o KXKXKXKXKXKX",
"KXKXKXKXX o . . . . . + % - - - - 1 A T T P m 3.e.gXbXVXVXVXVXVXVXVXVXVXVXbXgXe.3.m P T T A 1 - - - - % + . . . . . o X KXKXKXKX",
"KXKXKXKX  + % : , 7 c b b v k 3 > < h C C j a N 7.r.hXvXvXvXvXvXvXvXvXvXvXhXr.7.N a j C C h < > 3 k v b b c 7 , : % +   KXKXKXKX",
"KXKXKXKX  % s D _ b.#X1X1X.X,.+.K h < - - * $ y N 6.r.fXfXfXfXfXfXfXfXfXfXr.6.N y $ * - - < h K +.,..X1X1X#Xb._ D s %   KXKXKXKX",
"KXKXKXKX  % s ~ m.@X6X0X0X3X-X{.-.W 4 % + . . @ t M 4.0.0.0.0.0.0.0.0.0.0.4.M t @ . . + % 4 W -.{.-X3X0X0X6X@Xm.~ s %   KXKXKXKX",
"KXKXKXKX  + % I %X6X(.>.>.).3X4X{.&.W s % . . O @ w r p p p p p p p p p p r w @ O . . % s W &.{.4X3X).>.>.(.6X%XI % +   KXKXKXKX",
"KXKXKXKXX o . l /. X$.T T *.&X3X-X|.N.%.] b b v k 3 > - - - - - - - - - - > 3 k v b b ] %.N.|.-X3X&X*.T T $. X/.l . o X KXKXKXKX",
"KXKXKXKXKXKXo = l S U T T ) *.).3XyXeX9X2X1X1X.X,.+.K C C C C C C C C C C K +.,..X1X1X2X9XeXyX3X).*.) T T U S l = o KXKXKXKXKXKX",
"KXKXKXKXKXKXX o . % s A F T T =.,XuXuXtXwXeXyXrX>X|.N.>.>.>.>.>.>.>.>.>.>.N.|.>XrXyXeXwXtXuXuX,X=.T T F A s % . o X KXKXKXKXKXKX",
"KXKXKXKXKXKXKXKXo + % 1 A T T ..P.].].U.M.N.|.>XrXyXeX0X0X0X0X0X0X0X0X0X0XeXyXrX>X|.N.M.U.].].P...T T A 1 % + o KXKXKXKXKXKXKXKX",
"KXKXKXKXKXKXKXKXX     & d A F ! i.v.C.v.' X.:.[.<XwXtXuXuXuXuXuXuXuXuXuXuXtXwX<X[.:.X.' v.C.v.i.! F A s % . o X KXKXKXKXKXKXKXKX",
"KXKXKXKXKXKXKXKXKXKXKXKX& 1 A E ! ' v.C.v.p.X.@.;.M.U.].].].].].].].].].].U.M.;.@.X.p.v.C.v.' ! E A 1 % + o KXKXKXKXKXKXKXKXKXKX",
"KXKXKXKXKXKXKXKXKXKXKXKXX & d C C G u.v.C.v.' ! E ! i.v.C.A.A.A.A.A.A.C.v.i.! E ! ' v.C.v.u.G C C d &     X KXKXKXKXKXKXKXKXKXKX",
"KXKXKXKXKXKXKXKXKXKXKXKXKXKX& - - 5 G ' v.C.v.i.! E ! ' v.A.A.A.A.A.A.v.' ! E ! i.v.C.v.' G 5 - - & KXKXKXKXKXKXKXKXKXKXKXKXKXKX",
"KXKXKXKXKXKXKXKXKXKXKXKXKXKXX o . % s D _ y.a.i.! T T ! i.s.s.s.s.s.s.i.! T T ! i.a.y._ D s % . o X KXKXKXKXKXKXKXKXKXKXKXKXKXKX",
"KXKXKXKXKXKXKXKXKXKXKXKXKXKXKXKXo + % : , 8 H ! E T T E ! ^ ^ ^ ^ ^ ^ ! E T T E ! H 8 , : % + o KXKXKXKXKXKXKXKXKXKXKXKXKXKXKXKX",
"KXKXKXKXKXKXKXKXKXKXKXKXKXKXKXKXX     o . % s C C C C C C C C C C C C C C C C C C s % . o     X KXKXKXKXKXKXKXKXKXKXKXKXKXKXKXKX",
"KXKXKXKXKXKXKXKXKXKXKXKXKXKXKXKXKXKXKXKXo + % - - - - - - - - - - - - - - - - - - % + o KXKXKXKXKXKXKXKXKXKXKXKXKXKXKXKXKXKXKXKX",
"KXKXKXKXKXKXKXKXKXKXKXKXKXKXKXKXKXKXKXKXX                                             X KXKXKXKXKXKXKXKXKXKXKXKXKXKXKXKXKXKXKXKX",
"KXKXKXKXKXKXKXKXKXKXKXKXKXKXKXKXKXKXKXKXKXKXKXKXKXKXKXKXKXKXKXKXKXKXKXKXKXKXKXKXKXKXKXKXKXKXKXKXKXKXKXKXKXKXKXKXKXKXKXKXKXKXKXKX",
"KXKXKXKXKXKXKXKXKXKXKXKXKXKXKXKXKXKXKXKXKXKXKXKXKXKXKXKXKXKXKXKXKXKXKXKXKXKXKXKXKXKXKXKXKXKXKXKXKXKXKXKXKXKXKXKXKXKXKXKXKXKXKXKX",
"KXKXKXKXKXKXKXKXKXKXKXKXKXKXKXKXKXKXKXKXKXKXKXKXKXKXKXKXKXKXKXKXKXKXKXKXKXKXKXKXKXKXKXKXKXKXKXKXKXKXKXKXKXKXKXKXKXKXKXKXKXKXKXKX",
"KXKXKXKXKXKXKXKXKXKXKXKXKXKXKXKXKXKXKXKXKXKXKXKXKXKXKXKXKXKXKXKXKXKXKXKXKXKXKXKXKXKXKXKXKXKXKXKXKXKXKXKXKXKXKXKXKXKXKXKXKXKXKXKX",
"KXKXKXKXKXKXKXKXKXKXKXKXKXKXKXKXKXKXKXKXKXKXKXKXKXKXKXKXKXKXKXKXKXKXKXKXKXKXKXKXKXKXKXKXKXKXKXKXKXKXKXKXKXKXKXKXKXKXKXKXKXKXKXKX",
"KXKXKXKXKXKXKXKXKXKXKXKXKXKXKXKXKXKXKXKXKXKXKXKXKXKXKXKXKXKXKXKXKXKXKXKXKXKXKXKXKXKXKXKXKXKXKXKXKXKXKXKXKXKXKXKXKXKXKXKXKXKXKXKX",
"KXKXKXKXKXKXKXKXKXKXKXKXKXKXKXKXKXKXKXKXKXKXKXKXKXKXKXKXKXKXKXKXKXKXKXKXKXKXKXKXKXKXKXKXKXKXKXKXKXKXKXKXKXKXKXKXKXKXKXKXKXKXKXKX",
"KXKXKXKXKXKXKXKXKXKXKXKXKXKXKXKXKXKXKXKXKXKXKXKXKXKXKXKXKXKXKXKXKXKXKXKXKXKXKXKXKXKXKXKXKXKXKXKXKXKXKXKXKXKXKXKXKXKXKXKXKXKXKXKX"
};
